<svg xmlns="http://www.w3.org/2000/svg" viewBox="0 0 19.61 19.54"><defs><style>.cls-1{fill:#4c4c4c;}</style></defs><title>blogs</title><g id="Layer_2" data-name="Layer 2"><g id="Layer_1-2" data-name="Layer 1"><circle class="cls-1" cx="1.59" cy="17.95" r="1.59" transform="translate(-12.23 6.38) rotate(-45)"/><path class="cls-1" d="M19.6,17A16.3,16.3,0,0,0,14.8,4.81,16.3,16.3,0,0,0,2.57,0a1,1,0,0,0,.07,1.92,14.4,14.4,0,0,1,10.8,4.24A14.4,14.4,0,0,1,17.68,17,1,1,0,0,0,19.6,17Z"/><path class="cls-1" d="M14.3,17.35a12,12,0,0,0-3.44-8.6,12,12,0,0,0-8.6-3.44,1,1,0,0,0,0,1.92A10.06,10.06,0,0,1,9.5,10.11a10.06,10.06,0,0,1,2.88,7.23,1,1,0,1,0,1.92,0Z"/><path class="cls-1" d="M8.76,17.44a6.93,6.93,0,0,0-1.89-4.73h0l0,0h0A6.93,6.93,0,0,0,2.1,10.78a1,1,0,0,0,0,1.92A5,5,0,0,1,5.47,14h0l0,0h0a5,5,0,0,1,1.32,3.38,1,1,0,0,0,1.92,0Z"/></g></g></svg>