<svg xmlns="http://www.w3.org/2000/svg" viewBox="0 0 26.45 20.15"><defs><style>.cls-1{fill:#4c4c4c;}</style></defs><title>contact</title><g id="Layer_2" data-name="Layer 2"><g id="Layer_1-2" data-name="Layer 1"><path class="cls-1" d="M24.13,0H2.32a2.3,2.3,0,0,0-1,.23L13.17,12.08l2.65-2.55h0L25.12.23A2.3,2.3,0,0,0,24.13,0Z"/><path class="cls-1" d="M26.22,1.33l-8.75,8.75,8.75,8.75a2.3,2.3,0,0,0,.23-1V2.32A2.3,2.3,0,0,0,26.22,1.33Z"/><path class="cls-1" d="M.23,1.33a2.3,2.3,0,0,0-.23,1v15.5a2.3,2.3,0,0,0,.23,1L9,10.07Z"/><path class="cls-1" d="M16.38,11.17l-2.66,2.55a.77.77,0,0,1-1.1,0l-2.55-2.55L1.33,19.92a2.3,2.3,0,0,0,1,.23h21.8a2.3,2.3,0,0,0,1-.23Z"/></g></g></svg>