<svg xmlns="http://www.w3.org/2000/svg" viewBox="0 0 22.5 22.5"><defs><style>.cls-1{fill:#4c4c4c;}</style></defs><title>FAQ</title><g id="Layer_2" data-name="Layer 2"><g id="Layer_1-2" data-name="Layer 1"><circle class="cls-1" cx="11.25" cy="16.63" r="1.1"/><path class="cls-1" d="M11.25,0A11.25,11.25,0,1,0,22.5,11.25,11.24,11.24,0,0,0,11.25,0Zm0,20.74a9.49,9.49,0,1,1,9.49-9.49A9.49,9.49,0,0,1,11.25,20.74Z"/><path class="cls-1" d="M11.25,5.65A3.52,3.52,0,0,0,7.73,9.16a.88.88,0,1,0,1.76,0,1.76,1.76,0,1,1,1.76,1.76.88.88,0,0,0-.88.88V14a.88.88,0,0,0,1.76,0V12.57a3.52,3.52,0,0,0-.88-6.92Z"/></g></g></svg>