<svg xmlns="http://www.w3.org/2000/svg" viewBox="0 0 24 21.09"><defs><style>.cls-1{fill:#4c4c4c;}</style></defs><title>jobs</title><g id="Layer_2" data-name="Layer 2"><g id="Layer_1-2" data-name="Layer 1"><path class="cls-1" d="M23.3,2.81H16.92v-.7A2.11,2.11,0,0,0,14.81,0H9.19A2.11,2.11,0,0,0,7.08,2.11v.7H.7a.7.7,0,0,0-.7.7V19a2.11,2.11,0,0,0,2.11,2.11H21.89A2.11,2.11,0,0,0,24,19V3.53h0A.68.68,0,0,0,23.3,2.81ZM8.48,2.11a.7.7,0,0,1,.7-.7h5.63a.7.7,0,0,1,.7.7v.7h-7ZM22.32,4.22l-2.18,6.55a.7.7,0,0,1-.67.48h-4v-.7a.7.7,0,0,0-.7-.7H9.19a.7.7,0,0,0-.7.7v.7h-4a.7.7,0,0,1-.67-.48L1.68,4.22Zm-8.21,7v1.41H9.89V11.25ZM22.59,19a.7.7,0,0,1-.7.7H2.11a.7.7,0,0,1-.7-.7V7.85l1.12,3.37a2.11,2.11,0,0,0,2,1.44h4v.7a.7.7,0,0,0,.7.7h5.63a.7.7,0,0,0,.7-.7v-.7h4a2.11,2.11,0,0,0,2-1.44l1.12-3.37Z"/></g></g></svg>