<svg xmlns="http://www.w3.org/2000/svg" viewBox="0 0 17 22.67"><defs><style>.cls-1{fill:#4c4c4c;}</style></defs><title>login-icon</title><g id="Layer_2" data-name="Layer 2"><g id="Layer_1-2" data-name="Layer 1"><path class="cls-1" d="M16.53,8.5H15.11V6.61a6.61,6.61,0,0,0-13.22,0V8.5H.47A.47.47,0,0,0,0,9V20.78a1.89,1.89,0,0,0,1.89,1.89H15.11A1.89,1.89,0,0,0,17,20.78V9A.47.47,0,0,0,16.53,8.5ZM9.91,18.36a.47.47,0,0,1-.47.52H7.56a.47.47,0,0,1-.47-.52l.3-2.68a1.87,1.87,0,0,1-.77-1.52,1.89,1.89,0,1,1,3.78,0,1.87,1.87,0,0,1-.77,1.52ZM12.28,8.5H4.72V6.61a3.78,3.78,0,1,1,7.56,0Z"/></g></g></svg>