<svg xmlns="http://www.w3.org/2000/svg" xmlns:xlink="http://www.w3.org/1999/xlink" viewBox="0 0 28.77 26.14"><defs><style>.cls-1{fill:url(#linear-gradient);}.cls-2{fill:url(#linear-gradient-2);}.cls-3{fill:url(#linear-gradient-3);}</style><linearGradient id="linear-gradient" x1="26.28" y1="18.4" x2="28.77" y2="18.4" gradientUnits="userSpaceOnUse"><stop offset="0" stop-color="#ce907a"/><stop offset="0" stop-color="#bf6c4a"/><stop offset="1" stop-color="#a55438"/></linearGradient><linearGradient id="linear-gradient-2" x1="24.88" y1="16.32" x2="26" y2="16.32" xlink:href="#linear-gradient"/><linearGradient id="linear-gradient-3" x1="0" y1="13.07" x2="27.12" y2="13.07" xlink:href="#linear-gradient"/></defs><title>motivation-svg</title><g id="Layer_2" data-name="Layer 2"><g id="Layer_1-2" data-name="Layer 1"><path class="cls-1" d="M28.61,18.68l-1.37-1.36a.56.56,0,1,0-.79.8l1.37,1.36a.56.56,0,0,0,.79-.8Z"/><path class="cls-2" d="M25.84,15.93a.56.56,0,0,0-.79,0h0a.56.56,0,1,0,.8,0Z"/><path class="cls-3" d="M21,18.52l5.45-5.45a2.12,2.12,0,0,0-1-3.56,2.12,2.12,0,0,0-1.56-3,2.11,2.11,0,0,0-1.65-2.75,2.12,2.12,0,0,0-3-2.53l-.05-.06A3.75,3.75,0,0,0,16.45,0H12a.56.56,0,0,0-.56.56V1.3a2.55,2.55,0,0,0,.15.85A2.12,2.12,0,0,0,8.8,4.77,2.12,2.12,0,0,0,7.15,7.52a2.12,2.12,0,0,0-1.56,3,2.12,2.12,0,0,0-1,3.56l1.12,1.12L.16,20.7A.56.56,0,1,0,1,21.5l5.57-5.57A2.12,2.12,0,0,0,9.69,14h.09a2.12,2.12,0,0,0,2.12-2.12s0-.06,0-.09H12A2.12,2.12,0,0,0,14.1,9.68s0-.06,0-.09h.08a2.12,2.12,0,0,0,1.64-3.46l3.73-3.73A1,1,0,1,1,21,3.81l-.55.55-2,2a.56.56,0,1,0,.79.79l2-2a1,1,0,1,1,1.41,1.41l-.55.55L20.61,8.56a.56.56,0,1,0,.79.79l1.45-1.45a1,1,0,1,1,1.41,1.41l-.76.76-.69.69a.56.56,0,1,0,.79.79l.69-.69a1,1,0,0,1,1.41,1.41l-5.45,5.45A7.61,7.61,0,0,1,15.13,20a.56.56,0,0,0-.38.17l-5,5.06a.56.56,0,1,0,.8.79l3.7-3.72a5.22,5.22,0,0,0,3.17.82l2.9,2.9a.56.56,0,1,0,.79-.79L18,22.09a.56.56,0,0,0-.44-.16h-.18A4.1,4.1,0,0,1,15,21.43l.36-.36A8.73,8.73,0,0,0,21,18.52ZM8.28,14.79a1,1,0,0,1-1.41,0L5.36,13.27a1,1,0,1,1,1.41-1.41l1.52,1.52A1,1,0,0,1,8.28,14.79Zm2.2-2.2a1,1,0,0,1-1.41,0L7.56,11.07l-.76-.76A1,1,0,1,1,8.21,8.91l2.27,2.27h0a1,1,0,0,1,0,1.41Zm2.2-2.2a1,1,0,0,1-1.41,0L8.45,7.56A1,1,0,0,1,9.86,6.16l1.29,1.29L12.68,9h0a1,1,0,0,1,0,1.41Zm2.2-2.2a1,1,0,0,1-1.41,0L10.65,5.36h0l-.55-.55a1,1,0,0,1,1.41-1.41l3.37,3.37a1,1,0,0,1,0,1.41ZM15,5.34,13.49,3.79a2.57,2.57,0,0,0,.54.06h1.55a.56.56,0,0,0,0-1.12H14A1.43,1.43,0,0,1,12.6,1.3V1.12h3.85A2.62,2.62,0,0,1,18.37,2l0,0Z"/></g></g></svg>