<svg xmlns="http://www.w3.org/2000/svg" viewBox="0 0 23 20.22"><defs><style>.cls-1{fill:#4c4c4c;}</style></defs><title>press</title><g id="Layer_2" data-name="Layer 2"><g id="Layer_1-2" data-name="Layer 1"><path class="cls-1" d="M20.53,10.33H13.72a.45.45,0,0,0,0,.9h6.81a.45.45,0,1,0,0-.9Z"/><path class="cls-1" d="M20.53,15.54H13.72a.45.45,0,0,0,0,.9h6.81a.45.45,0,1,0,0-.9Z"/><path class="cls-1" d="M6.66,16.45h5.22a.45.45,0,0,0,.45-.45V10.78a.45.45,0,0,0-.45-.45H6.66a.45.45,0,0,0-.45.45V16A.45.45,0,0,0,6.66,16.45Zm.45-5.22h4.31v4.31H7.11Z"/><path class="cls-1" d="M22.55,0H3.62a.45.45,0,0,0-.45.45V3H.45A.45.45,0,0,0,0,3.49V18.18a2,2,0,0,0,2,2H21a2,2,0,0,0,2-2V.45A.45.45,0,0,0,22.55,0ZM3.17,8.46H2.49V7h.68V8.46ZM.9,18.18V3.94H3.17V6.07H2a.45.45,0,0,0-.45.45V8.91A.45.45,0,0,0,2,9.36H3.17v1.71H2A.45.45,0,0,0,2,12H3.17v1.71H2a.45.45,0,0,0,0,.9H3.17v1.71H2a.45.45,0,0,0,0,.9H3.17v1a1.13,1.13,0,1,1-2.26,0Zm21.19,0A1.13,1.13,0,0,1,21,19.31H3.72a2,2,0,0,0,.34-1.13V.9h18Z"/><path class="cls-1" d="M8.4,5.8h9.4a.45.45,0,0,0,.45-.45V3a.45.45,0,0,0-.45-.45H8.4A.45.45,0,0,0,8,3V5.35A.45.45,0,0,0,8.4,5.8Zm.45-2.39h8.5V4.9H8.85Z"/><path class="cls-1" d="M6.66,8.51H8.4a.45.45,0,0,0,0-.9H6.66a.45.45,0,0,0,0,.9Z"/><path class="cls-1" d="M10.58,7.81a.45.45,0,1,0-.07.58A.45.45,0,0,0,10.58,7.81Z"/><path class="cls-1" d="M11.55,8.06a.45.45,0,0,0,.45.45h8.53a.45.45,0,1,0,0-.9H12A.45.45,0,0,0,11.55,8.06Z"/><path class="cls-1" d="M20.36,13.8a.45.45,0,1,0-.27-.49A.45.45,0,0,0,20.36,13.8Z"/><path class="cls-1" d="M13.72,13.84h5a.45.45,0,0,0,0-.9h-5a.45.45,0,0,0,0,.9Z"/></g></g></svg>