<svg xmlns="http://www.w3.org/2000/svg" viewBox="0 0 25.03 27.98"><defs><style>.cls-1{fill:#4c4c4c;}</style></defs><title>siila foundation</title><g id="Layer_2" data-name="Layer 2"><g id="Layer_1-2" data-name="Layer 1"><path class="cls-1" d="M1.3,5a1.64,1.64,0,0,0-.49.59,1.72,1.72,0,0,1,.49-1.18c.32-.35.56-.57.69-.75A6.07,6.07,0,0,1,3.6,2.22c.76-.42,1-.57,1.34-.8A12.13,12.13,0,0,1,8.54.24a13.32,13.32,0,0,1,5.57.11,11.86,11.86,0,0,1,4.94,2.42,13.79,13.79,0,0,1,2.31,2.35,7.77,7.77,0,0,1,1.66,2,13.87,13.87,0,0,1,1.74,4.44,11.78,11.78,0,0,1,.06,4.65,13.34,13.34,0,0,1-1.95,5.11,11.24,11.24,0,0,1-1.38,1.77l.3-.17a14.1,14.1,0,0,1-2.11,2,13.87,13.87,0,0,1-4.46,2.28A10.47,10.47,0,0,1,11,28a7.42,7.42,0,0,1-3.52-.57c-.72-.43-1.16-.78-1.29-.87a5.45,5.45,0,0,1-1.31-1.08,13,13,0,0,0,1.56.6,2,2,0,0,1-.72-.88A6.88,6.88,0,0,1,4,23.79a2.75,2.75,0,0,0,.79.32,10.37,10.37,0,0,1-2-1.39A10.28,10.28,0,0,1,.56,20a7.16,7.16,0,0,1-.47-1.68S.87,19.5,1.2,19.92a18.54,18.54,0,0,0,2.94,2.95A11.36,11.36,0,0,0,9,25a11.33,11.33,0,0,0,5.44-.41,10.65,10.65,0,0,0,3.4-1.79A9.7,9.7,0,0,0,20.36,20a12.26,12.26,0,0,0,1.55-4.14,11.5,11.5,0,0,0-.14-4.27,12.23,12.23,0,0,0-1.82-4,10.51,10.51,0,0,0-3.08-2.86s.06,0,.06,0a12.16,12.16,0,0,0-3-1.31A8.77,8.77,0,0,0,10.79,3s0,0-.11.06a14.3,14.3,0,0,0-2.63.36A10.65,10.65,0,0,0,4.5,5.11c-.84.68-1,1-1.18,1.06a.35.35,0,0,1-.26.05l-.94.7a8.6,8.6,0,0,1,.65-1S2.7,5.77,3,5.48a5,5,0,0,1,.49-.39l-.23.09a13.92,13.92,0,0,0-1,1.14C1.66,7,.54,8.24.54,8.24a9.29,9.29,0,0,1,1.1-1.85.79.79,0,0,0-.17.13l.1-.27s-.44.51-.92,1.18A4.48,4.48,0,0,0,0,8.85,5.63,5.63,0,0,1,.17,7.59a2.55,2.55,0,0,1,.55-1A2.91,2.91,0,0,1,1.3,5Z"/><path class="cls-1" d="M15.61,6a2.42,2.42,0,0,1,1.1-.37,8.58,8.58,0,0,0-.9,1S16.7,6,17,5.86c-.64.93-.82,1.22-1.17,1.71a3.1,3.1,0,0,0-.57.9,5.18,5.18,0,0,1,1.06-1.32,5.07,5.07,0,0,1,1.17-.64l-.19.23.29-.15-.14.16a2.15,2.15,0,0,1,.31,0,1.46,1.46,0,0,0-.61.68,3.53,3.53,0,0,1,.48-.3,5.6,5.6,0,0,0-.49.71,8,8,0,0,1,1.74-1.73c.41-.22.82,0,.37.38A10.55,10.55,0,0,0,17.46,8.3a10.7,10.7,0,0,0-1.53,3,7.13,7.13,0,0,0-.26,2.59,8.63,8.63,0,0,0,.56,3.22,11,11,0,0,0,1.54,2.71,10.19,10.19,0,0,1,1.06,1.45c.28.55.41.78.41.78l-.79.44,0,0-.7-.62c.38.56.55.8.55.8l-.08,0h0l-.28-.17.11.29,0,0,0,0a2.43,2.43,0,0,0-.3-.36,4.52,4.52,0,0,1,.27.41l-.38.19a5.78,5.78,0,0,1-1.29-.92,12.59,12.59,0,0,1-1.62-2,10.77,10.77,0,0,1-1.31-2.79,9.12,9.12,0,0,1-.38-3,12.87,12.87,0,0,1,.33-3.22A14.56,14.56,0,0,1,14.32,8,10.45,10.45,0,0,1,15.61,6Z"/></g></g></svg>