<svg xmlns="http://www.w3.org/2000/svg" viewBox="0 0 31 19.68"><defs><style>.cls-1{fill:#4c4c4c;}</style></defs><title>team</title><g id="Layer_2" data-name="Layer 2"><g id="Layer_1-2" data-name="Layer 1"><path class="cls-1" d="M26.81,8.66a3.54,3.54,0,1,0-4.06,0,6.13,6.13,0,0,0-2.09,1.23,7.93,7.93,0,0,0-2.87-1.56,4.48,4.48,0,1,0-4.64,0,8,8,0,0,0-2.84,1.55,6.18,6.18,0,0,0-2.07-1.2,3.54,3.54,0,1,0-4.06,0A6.21,6.21,0,0,0,0,14.54v.4a0,0,0,0,0,0,0h7.5a8.25,8.25,0,0,0-.07,1v.42a3.26,3.26,0,0,0,3.26,3.26h9.51a3.26,3.26,0,0,0,3.26-3.26V16a8.25,8.25,0,0,0-.07-1H31a0,0,0,0,0,0,0v-.4A6.24,6.24,0,0,0,26.81,8.66Zm-4.59-2.9a2.56,2.56,0,1,1,2.61,2.56h-.1A2.55,2.55,0,0,1,22.22,5.76ZM12,4.48A3.5,3.5,0,1,1,15.66,8h-.4A3.51,3.51,0,0,1,12,4.48ZM3.64,5.76A2.56,2.56,0,1,1,6.24,8.32h-.1A2.56,2.56,0,0,1,3.64,5.76ZM7.7,14H1A5.24,5.24,0,0,1,6.16,9.3h.07a5.19,5.19,0,0,1,3.34,1.25A8.05,8.05,0,0,0,7.7,14Zm14.8,2.44a2.29,2.29,0,0,1-2.28,2.28H10.71a2.29,2.29,0,0,1-2.28-2.28V16a7,7,0,0,1,6.83-7h.42a7,7,0,0,1,6.83,7ZM23.23,14a8,8,0,0,0-1.86-3.41A5.21,5.21,0,0,1,24.74,9.3h.07A5.24,5.24,0,0,1,30,14Z"/></g></g></svg>